# xmcd
#
# Track frame offsets:
#	150
#	12708
#	26507
#	45050
#	56090
#	76806
#	88871
#	104605
#	118905
#	134293
#
# Disc length: 1964 seconds
#
# Revision: 0
# Processed by: cddbd v1.5.1PL0 Copyright (c) Steve Scherf et al.
# Submitted via: dBpowerAMP V4.0
#
DISCID=7f07aa0a
DTITLE=Various Artist - Bluegrass Christmas
DYEAR=2004
DGENRE=Bluegrass
TTITLE0=Jingle Bells
TTITLE1=Deck The Halls - We Wish You A Merry Christmas
TTITLE2=Angels We Have Heard On High
TTITLE3=Joy To The World
TTITLE4=Away In The Manger - The First Noel
TTITLE5=God Rest Ye Merry Gentlemen
TTITLE6=We Three Kings
TTITLE7=O Come All Ye Faithful
TTITLE8=Silent Night
TTITLE9=What Child Is This
EXTD=
EXTT0=
EXTT1=
EXTT2=
EXTT3=
EXTT4=
EXTT5=
EXTT6=
EXTT7=
EXTT8=
EXTT9=
PLAYORDER=
